<svg width="195" height="351" viewBox="0 0 195 351" fill="none" xmlns="http://www.w3.org/2000/svg">
<mask id="path-1-inside-1_201_20" fill="white">
<path fill-rule="evenodd" clip-rule="evenodd" d="M32 22C32 9.84975 41.8497 0 54 0H142C154.15 0 164 9.84974 164 22V122.715L193.808 177.777C197.055 183.774 192.713 191.062 185.894 191.062H117V299.993L97.5 351L78 299.993V191.062H9.10642C2.28744 191.062 -2.05456 183.774 1.19179 177.777L31.6973 121.427C31.7929 121.251 31.8939 121.078 32 120.91V22Z"/>
</mask>
<path d="M164 122.715H156V124.742L156.965 126.524L164 122.715ZM193.808 177.777L200.843 173.968L200.843 173.968L193.808 177.777ZM117 191.062V183.062H109V191.062H117ZM117 299.993L124.473 302.849L125 301.47V299.993H117ZM97.5 351L90.0274 353.857L97.5 373.403L104.973 353.857L97.5 351ZM78 299.993H70V301.47L70.5274 302.849L78 299.993ZM78 191.062H86V183.062H78V191.062ZM1.19179 177.777L8.22703 181.586L8.22703 181.585L1.19179 177.777ZM31.6973 121.427L38.7325 125.236L38.7326 125.236L31.6973 121.427ZM32 120.91L38.7669 125.177L40 123.222V120.91H32ZM54 -8C37.4314 -8 24 5.43148 24 22H40C40 14.268 46.268 8 54 8V-8ZM142 -8H54V8H142V-8ZM172 22C172 5.43146 158.569 -8 142 -8V8C149.732 8 156 14.268 156 22H172ZM172 122.715V22H156V122.715H172ZM200.843 173.968L171.035 118.907L156.965 126.524L186.773 181.586L200.843 173.968ZM185.894 199.062C198.774 199.062 206.975 185.295 200.843 173.968L186.773 181.586C187.134 182.252 186.651 183.062 185.894 183.062V199.062ZM117 199.062H185.894V183.062H117V199.062ZM109 191.062V299.993H125V191.062H109ZM109.527 297.136L90.0274 348.143L104.973 353.857L124.473 302.849L109.527 297.136ZM104.973 348.143L85.4725 297.136L70.5274 302.849L90.0274 353.857L104.973 348.143ZM86 299.993V191.062H70V299.993H86ZM9.10642 199.062H78V183.062H9.10642V199.062ZM-5.84345 173.968C-11.9754 185.295 -3.7739 199.062 9.10642 199.062V183.062C8.34878 183.062 7.86631 182.252 8.22703 181.586L-5.84345 173.968ZM24.6621 117.619L-5.84345 173.968L8.22703 181.585L38.7325 125.236L24.6621 117.619ZM25.2331 116.643C25.0327 116.96 24.8422 117.286 24.6621 117.619L38.7326 125.236C38.7436 125.215 38.755 125.196 38.7669 125.177L25.2331 116.643ZM24 22V120.91H40V22H24Z" fill="#1D1D1D" mask="url(#path-1-inside-1_201_20)"/>
</svg>
